<svg id="Capa_1" enable-background="new 0 0 512 512"  viewBox="0 0 512 512"  xmlns="http://www.w3.org/2000/svg"><g><path d="m473.713 0h-46.767c-5.522 0-10 4.478-10 10v34.78h-321.892v-34.78c0-5.522-4.478-10-10-10h-46.767c-5.522 0-10 4.478-10 10v492c0 5.522 4.478 10 10 10h46.767c5.522 0 10-4.478 10-10v-177.249h321.893v177.249c0 5.522 4.478 10 10 10h46.767c5.522 0 10-4.478 10-10v-492c-.001-5.522-4.479-10-10.001-10zm-378.659 112.789h321.893v143.953h-321.893zm321.892-48.009v28.009h-321.892v-28.009zm-341.892 427.22h-26.767v-472h26.767zm20-187.249v-28.009h321.893v28.009zm368.659 187.249h-26.767v-472h26.767z"/><path d="m236.798 149.646h-.099c-5.522.054-9.956 4.574-9.903 10.097l.18 18.478-16.687-24.163c-2.486-3.602-7.027-5.165-11.204-3.864-4.179 1.303-7.024 5.171-7.024 9.547v50.146c0 5.522 4.478 10 10 10s10-4.478 10-10v-18.067l15.678 22.703c2.748 3.974 7.579 5.713 12.01 4.327 4.497-1.403 7.518-5.686 7.518-10.753l-.47-48.547c-.055-5.491-4.521-9.904-9.999-9.904z"/><path d="m173.988 149.646c-5.522 0-10 4.478-10 10v50.24c0 5.522 4.478 10 10 10s10-4.478 10-10v-50.24c0-5.523-4.477-10-10-10z"/><path d="m265.816 149.646c-5.522 0-10 4.478-10 10v50.24c0 5.522 4.478 10 10 10s10-4.478 10-10v-50.24c0-5.523-4.477-10-10-10z"/><path d="m384.935 149.646c-5.522 0-10 4.478-10 10v14.259h-14.766v-14.259c0-5.522-4.478-10-10-10s-10 4.478-10 10v50.24c0 5.522 4.478 10 10 10s10-4.478 10-10v-15.981h14.766v15.981c0 5.522 4.478 10 10 10s10-4.478 10-10v-50.24c0-5.523-4.478-10-10-10z"/><path d="m147.278 169.83c5.522 0 10-4.478 10-10s-4.478-10-10-10h-20.213c-5.522 0-10 4.478-10 10v49.871c0 5.522 4.478 10 10 10s10-4.478 10-10v-15.408h8.607c5.522 0 10-4.478 10-10s-4.478-10-10-10h-8.607v-4.463z"/><path d="m317.566 175.78c-5.162-1.904-10.027-3.955-12.435-4.992.159-.244.556-.553 1.305-.778 5.192-1.567 10.372 2.493 10.423 2.535l.344.2c4.139 2.409 9.411 1.491 12.493-2.175 3.814-4.537 2.797-11.402-2.186-14.611-7.27-4.682-16.325-8.267-26.842-5.099-8.336 2.512-14.242 9.141-15.414 17.3-1.112 7.745 2.249 15.199 8.772 19.453.442.288.906.541 1.389.756.295.132 7.322 3.259 15.229 6.176 3.172 1.17 4.137 2.44 4.216 2.671-.027.622-1.674 2.671-5.117 2.671-5.869 0-9.213-3.187-10.099-4.163-3.786-4.178-10.301-4.415-14.381-.453-3.985 3.87-3.818 10.315-.004 14.353 6.168 6.531 15.053 10.263 24.484 10.263 12.392 0 22.823-8.046 24.802-19.131 1.445-8.1-2.134-19.5-16.979-24.976z"/></g></svg>