<svg  viewBox="0 0 512 512"  xmlns="http://www.w3.org/2000/svg"><path d="m124.4375 315.703125c.375-42.496094 36.128906-73.871094 36.472656-74.167969 3.199219-2.738281 4.351563-7.175781 2.890625-11.125-1.460937-3.945312-5.222656-6.566406-9.433593-6.566406h-53.027344c-5.550782 0-10.054688 4.5-10.054688 10.054688 0 5.554687 4.503906 10.054687 10.054688 10.054687h30.128906c-12.234375 15.695313-26.871094 40.851563-27.144531 71.570313-.046875 5.550781 4.414062 10.097656 9.96875 10.144531h.089843c5.511719 0 10.003907-4.445313 10.054688-9.964844zm0 0"/><path d="m497.285156 430.445312-165.171875-155.117187c-.308593-3.804687-.757812-7.570313-1.34375-11.289063 7.425781 1.625 15.03125 2.445313 22.75 2.445313 11.800781 0 23.449219-1.945313 34.617188-5.78125 20.488281-7.035156 38.839843-20.726563 51.675781-38.558594 20.484375-28.460937 25.3125-64.703125 13.667969-97.523437-5.496094-15.484375-14.816407-29.683594-26.683594-41.03125-6.507813-6.226563-13.914063-11.921875-21.910156-16.113282-15.5625-8.597656-33.4375-13.265624-51.367188-13.265624-8.710937 0-17.441406 1.085937-25.945312 3.226562-5.386719 1.355469-8.65625 6.816406-7.300781 12.203125 1.355468 5.386719 6.816406 8.65625 12.207031 7.300781 6.902343-1.738281 13.980469-2.617187 21.039062-2.617187 10.316407 0 20.597657 1.910156 30.203125 5.492187-7.972656 11.164063-12.382812 24.640625-12.382812 38.582032 0 36.019531 28.84375 65.40625 64.644531 66.324218-2.714844 9.199219-6.921875 17.929688-12.496094 25.671875-10.421875 14.480469-25.296875 25.59375-41.882812 31.285157-9.0625 3.113281-18.511719 4.691406-28.085938 4.691406-9.636719 0-19.046875-1.570313-28.035156-4.671875-10.109375-31.609375-30.453125-58.953125-57.925781-77.847657-.042969-1.152343-.070313-2.324218-.070313-3.511718 0-10.792969 1.988281-21.339844 5.910157-31.347656 2.027343-5.171876-.523438-11.003907-5.695313-13.03125-5.171875-2.023438-11.003906.523437-13.03125 5.695312-3.867187 9.875-6.207031 20.171875-6.992187 30.707031-18.902344-9.132812-40-14.40625-62.265626-14.808593l-138.347656-129.941407c-2.699218-2.527343-5.75-4.421875-8.980468-5.691406-.085938-.03125-.171876-.070313-.257813-.101563-.097656-.039062-.195313-.070312-.296875-.105468-9.90625-3.652344-21.375-1.460938-29.347656 6.511718-5.277344 5.277344-8.183594 12.292969-8.183594 19.761719 0 .445313.0117188.890625.03125 1.335938.316406 6.667969 2.984375 12.957031 7.585938 17.828125l102.722656 108.933594c-19.816406 10.898437-36.925782 26.15625-50.191406 44.914062-12.71875 17.988281-21.164063 38.253906-25.015626 59.632812-1.605468 8.839844-2.410156 17.84375-2.410156 26.828126 0 21.769531 4.5625 42.765624 13.5625 62.402343.121094.265625.269532.511719.414063.761719 23.878906 51.199219 75.84375 86.777344 135.964843 86.777344 53.351563 0 100.277344-28.015625 126.859376-70.101563l121.839843 129.203125c8.730469 9.257813 20.546875 14.457032 33.273438 14.644532.238281.003906.472656.003906.707031.003906 12.464844 0 24.15625-4.839844 32.992188-13.671875 8.8125-8.808594 13.664062-20.527344 13.664062-32.992188 0-12.84375-5.363281-25.25-14.714844-34.042969zm-59.578125-265.789062c-25.507812 0-46.257812-20.75-46.257812-46.257812 0-10.703126 3.722656-21.015626 10.390625-29.210938.121094.085938.242187.164062.363281.246094.222656.152344.441406.308594.660156.460937 9.753907 6.898438 18.023438 15.773438 24.171875 25.820313 8.808594 14.507812 13.160156 31.507812 12.40625 48.460937-.007812.148438-.019531.300781-.027344.449219-.566406.019531-1.136718.03125-1.707031.03125zm-281.003906-24.878906c-1.46875.257812-2.929687.535156-4.390625.835937-7.464844 1.535157-14.808594 3.632813-21.988281 6.308594-.242188.09375-.484375.183594-.726563.273437l-79.320312-84.117187 12.578125-13.035156 95.277343 89.484375c-.476562.078125-.953124.167968-1.429687.25zm-103.867187 147.683594c0-7.753907.699218-15.515626 2.070312-23.148438 8.042969-44.5 38.839844-81.179688 79.867188-97.519531 43.460937 9.300781 74.722656 47.789062 74.722656 92.582031 0 52.214844-42.476563 94.695312-94.6875 94.695312-18.347656 0-36.023438-5.210937-51.300782-15.09375-6.859374-15.800781-10.671874-33.21875-10.671874-51.515624zm-19.539063-265.179688s0 0 .003906.003906l14.894531 13.988282-11.730468 12.152343-14.214844-15.066406c-2.816406-2.992187-2.808594-7.761719.011719-10.746094 2.929687-3.105469 7.917969-3.261719 11.035156-.332031zm149.367187 395.007812c-40.527343 0-76.769531-18.667968-100.597656-47.855468 10.53125 3.128906 21.53125 4.75 32.742188 4.75 63.300781 0 114.796875-51.503906 114.796875-114.808594 0-43.148438-23.933594-81.472656-60.210938-101.054688.21875-.023437.4375-.050781.65625-.070312.179688-.015625.355469-.03125.53125-.046875 3.617188-.332031 7.257813-.515625 10.917969-.542969.082031-.003906.164062-.011718.25-.011718.304688-.003907.609375-.011719.914062-.011719 69.234376 0 125.984376 54.476562 129.636719 122.816406.335938 6.839844.1875 13.6875-.507812 20.503906-6.769531 65.269531-62.097657 116.332031-129.128907 116.332031zm149.1875-114.617187 48.167969 45.238281-31.890625 31.011719-28.542968-30.265625c6.570312-14.640625 10.675781-30.035156 12.265624-45.984375zm152.261719 180.589844c-5.121093 5.121093-11.957031 7.875-19.179687 7.777343-7.246094-.105468-13.96875-3.066406-18.9375-8.332031l-84.070313-89.152343 32.769531-31.863282 88.816407 83.414063c5.402343 5.074219 8.378906 11.957031 8.378906 19.382812-.003906 7.089844-2.761719 13.757813-7.777344 18.773438zm0 0"/><path d="m281.269531 91.617188c2.078125 5.070312 8.082031 7.53125 13.132813 5.4375 5.0625-2.09375 7.539062-8.070313 5.441406-13.132813s-8.074219-7.527344-13.132812-5.4375c-5.054688 2.085937-7.546876 8.082031-5.441407 13.132813zm0 0"/></svg>