<svg id="Capa_1" enable-background="new 0 0 512 512"  viewBox="0 0 512 512"  xmlns="http://www.w3.org/2000/svg"><g><path d="m145.033 441.503c-4.523.416-9.103.637-13.735.637-45.691 0-86.609-20.747-113.656-53.538l4.543 123.398h194.727c-29.197-17.442-53.886-41.672-71.879-70.497z"/><path d="m255.566 100.373 3.696-100.373h-255.929l3.696 100.373z"/><path d="m129.718 412.12c-10.851-25.525-16.859-53.586-16.859-83.024v-30h135.389l6.213-168.724h-246.328l6.499 176.507c6.092 59.028 55.281 104.453 115.086 105.241zm-55.736-246.108 4.587 124.59h-30.021l-4.587-124.59z"/><path d="m447.996 329.096c-.107 67.31-54.898 122.039-122.233 122.039s-122.125-54.728-122.232-122.039h-60.671c-.001 100.854 82.05 182.904 182.904 182.904s182.903-82.05 182.903-182.904z"/><path d="m417.996 329.096h-77.232v90.812c43.685-7.176 77.135-45.148 77.232-90.812z"/><path d="m233.531 329.096c.096 45.664 33.546 83.637 77.233 90.812v-90.812z"/></g></svg>