<?xml version="1.0" ?><svg viewBox="0 0 512 512" xmlns="http://www.w3.org/2000/svg"><g id="Augmented_Reality_product_preview"><rect height="12" width="101.8999" x="140.7983" y="381.6807"/><rect height="12" width="160.561" x="140.7983" y="356.8057"/><rect height="12" width="40.8701" x="260.4893" y="381.6807"/><ellipse cx="223.9491" cy="300.3052" rx="64.4003" ry="26.7866"/><path d="M331.2944,176.385c-16.8965.2376-29.5293,13.5-35.5551,21.3858a15.4,15.4,0,0,0,.3071,19.0932v-.0007c11.61,14.3374,23.9223,21.603,36.605,21.603.1552,0,.3115-.001.4672-.0029,16.896-.2378,29.5293-13.5005,35.5557-21.3858a15.398,15.398,0,0,0-.3081-19.0922C356.6143,183.4712,344.127,176.2407,331.2944,176.385Zm.9121,43.5869A12.9616,12.9616,0,1,1,345.168,207.01,12.9615,12.9615,0,0,1,332.2065,219.9719Z"/><path d="M382.51,254.8059a68.8115,68.8115,0,0,0-74.982-111.2051c-.82.3138-2.5747,1.0635-2.6377,1.0909a68.812,68.812,0,1,0,66.9688,119.4047l44.6025,44.6018,9.4634-10.4785Zm-90.4971-6.7737a56.842,56.842,0,1,1,80.3867,0A56.9074,56.9074,0,0,1,292.0127,248.0322Z"/><path d="M336.5171,428.7551a10,10,0,0,1-10,10H115.3794a10,10,0,0,1-10-10V91.8171a10,10,0,0,1,10-10h47.8457l-14.95,7.53a23.6018,23.6018,0,0,0-10.6583,10.8257c-.2218.46-1.0031,2.4285-1.1335,2.8155a23.3943,23.3943,0,0,0-1.23,7.4984v72.4512a23.6487,23.6487,0,0,0,12.3379,20.7832l62.0293,33.8027a23.6845,23.6845,0,0,0,22.6562-.0019l22.1133-12.0506a79.4741,79.4741,0,0,1-1.8164-12.6757L226.9482,226.76V150.1047l67.711-36.8933c-.0064.01-.0108.0215-.0166.0318v24.2219a79.37,79.37,0,0,1,12-5.1943V110.4863a23.1882,23.1882,0,0,0-1.7412-8.9111A23.5992,23.5992,0,0,0,293.624,89.3486L278.67,81.8171h47.8467a10,10,0,0,1,10,10v36.35a79.4432,79.4432,0,0,1,15.24,2.3113V64.27A32.695,32.695,0,0,0,319.0615,31.575H122.8345A32.6949,32.6949,0,0,0,90.14,64.27V456.8345a32.6949,32.6949,0,0,0,32.6949,32.6948h196.227a32.695,32.695,0,0,0,32.6953-32.6948V285.2173a79.4743,79.4743,0,0,1-15.24,2.311ZM153.333,193.1836a11.6572,11.6572,0,0,1-6.0791-10.2461V113.2207l67.6943,36.884V226.76Zm137.3438-91.4678L220.9482,139.708,151.22,101.7158a11.6817,11.6817,0,0,1,2.45-1.65l62.0244-31.2392a11.735,11.735,0,0,1,10.5049-.001l62.0313,31.2432A11.6294,11.6294,0,0,1,290.6768,101.7158ZM243.8291,469.3174H198.0669v-12h45.7622Z"/></g></svg>