<svg id="Capa_1" enable-background="new 0 0 511.998 511.998"  viewBox="0 0 511.998 511.998"  xmlns="http://www.w3.org/2000/svg"><g><g><path d="m406.998 480.999h-180c-8.291 0-15-6.709-15-15v-60c0-8.291 6.709-15 15-15h45v-270h-60v45c0 8.291-6.709 15-15 15h-60c-8.291 0-15-6.709-15-15v-120c0-8.291 6.709-15 15-15h360c8.291 0 15 6.709 15 15v120c0 8.291-6.709 15-15 15h-60c-8.291 0-15-6.709-15-15v-45h-60v270h45c8.291 0 15 6.709 15 15v60c0 8.291-6.709 15-15 15z"/></g><path d="m148.225 368.924c-2.607-4.878-7.69-7.925-13.228-7.925h-45v-315c0-8.291-6.709-15-15-15s-15 6.709-15 15v315h-45c-5.537 0-10.62 3.047-13.228 7.925s-2.314 10.796.747 15.396l60 90c2.783 4.175 7.471 6.68 12.48 6.68s9.697-2.505 12.48-6.68l60-90c3.064-4.6 3.357-10.518.749-15.396z"/></g></svg>